<?xml version="1.0" standalone="no"?>
<svg xmlns:xlink="http://www.w3.org/1999/xlink" xmlns="http://www.w3.org/2000/svg" class="vtree" width="960" height="800"><style>
.vtree-node text { font: 14px sans-serif; }
.vtree-link { fill: none; stroke: #888; stroke-width: 2px; }
.vtree-table { stroke-width: 2px; stroke: steelblue; }
path.vtree-table { fill: white; }
g.vtree-node rect { fill: white; stroke: black; stroke-width: 1px; }
g.vtree-node rect.number-text { fill: #d8f0ed; }
g.vtree-node rect.string-text { fill: #e7f0db; }
g.vtree-node rect.boolean-text { fill: #e1d8f0; }
g.vtree-node rect.null-text { fill: #888; }
</style><g class="vtree-root" transform="translate(277.21048587625546,83.19454362481886)scale(0.4206498441980291)"><g class="vtree-node" transform="translate(480,111)"><g class="vtree-node" transform="translate(-8,0)"><path class="vtree-link" d="M8,4C8,43.5 824,43.5 824,83"/><path class="vtree-link" d="M8,4C8,43.5 19,43.5 19,83"/><path class="vtree-link" d="M8,4C8,43.5 -796,43.5 -796,83"/><g class="vtree-node" transform="translate(-823,58)"><path class="vtree-link" d="M27,25C27,100 203,100 203,175"/><path class="vtree-link" d="M27,25C27,100 -90,100 -90,175"/><g class="vtree-node" transform="translate(-261,79)"><g transform="translate(0,21)"><g transform="translate(0,0)"><rect class="string-text" x="0" y="0" width="81" height="25"/><text x="4" y="21">Type</text></g><g transform="translate(81,0)"><rect class="string-text" x="0" y="0" width="261" height="25"/><text x="4" y="21">Driver</text></g><g transform="translate(0,25)"><rect class="string-text" x="0" y="0" width="81" height="25"/><text x="4" y="21">blockStatus</text></g><g transform="translate(81,25)"><rect class="string-text" x="0" y="0" width="261" height="25"/><text x="4" y="21">no</text></g><g transform="translate(0,50)"><rect class="string-text" x="0" y="0" width="81" height="25"/><text x="4" y="21">email</text></g><g transform="translate(81,50)"><rect class="string-text" x="0" y="0" width="261" height="25"/><text x="4" y="21">driver@eng.asu.edu.eg</text></g><g transform="translate(0,75)"><rect class="string-text" x="0" y="0" width="81" height="25"/><text x="4" y="21">id</text></g><g transform="translate(81,75)"><rect class="string-text" x="0" y="0" width="261" height="25"/><text x="4" y="21">SLOQmAOAWDSaFNUSHgTJszf4NeS2</text></g><g transform="translate(0,100)"><rect class="string-text" x="0" y="0" width="81" height="25"/><text x="4" y="21">name</text></g><g transform="translate(81,100)"><rect class="string-text" x="0" y="0" width="261" height="25"/><text x="4" y="21">ziad</text></g><g transform="translate(0,125)"><rect class="string-text" x="0" y="0" width="81" height="25"/><text x="4" y="21">phone</text></g><g transform="translate(81,125)"><rect class="string-text" x="0" y="0" width="261" height="25"/><text x="4" y="21">01068925677</text></g></g><g><text x="171" y="17" text-anchor="middle">SLOQmAOAWDSaFNUSHgTJszf4NeS2</text></g></g><g class="vtree-node" transform="translate(91,79)"><g transform="translate(0,21)"><g transform="translate(0,0)"><rect class="string-text" x="0" y="0" width="81" height="25"/><text x="4" y="21">Type</text></g><g transform="translate(81,0)"><rect class="string-text" x="0" y="0" width="142" height="25"/><text x="4" y="21">Driver</text></g><g transform="translate(0,25)"><rect class="string-text" x="0" y="0" width="81" height="25"/><text x="4" y="21">blockStatus</text></g><g transform="translate(81,25)"><rect class="string-text" x="0" y="0" width="142" height="25"/><text x="4" y="21">no</text></g><g transform="translate(0,50)"><rect class="string-text" x="0" y="0" width="81" height="25"/><text x="4" y="21">email</text></g><g transform="translate(81,50)"><rect class="string-text" x="0" y="0" width="142" height="25"/><text x="4" y="21">test@eng.asu.edu.eg</text></g><g transform="translate(0,75)"><rect class="string-text" x="0" y="0" width="81" height="25"/><text x="4" y="21">id</text></g><g transform="translate(81,75)"><rect class="string-text" x="0" y="0" width="142" height="25"/><text x="4" y="21">TEST</text></g><g transform="translate(0,100)"><rect class="string-text" x="0" y="0" width="81" height="25"/><text x="4" y="21">name</text></g><g transform="translate(81,100)"><rect class="string-text" x="0" y="0" width="142" height="25"/><text x="4" y="21">tester</text></g><g transform="translate(0,125)"><rect class="string-text" x="0" y="0" width="81" height="25"/><text x="4" y="21">phone</text></g><g transform="translate(81,125)"><rect class="string-text" x="0" y="0" width="142" height="25"/><text x="4" y="21">11111111111</text></g></g><g><text x="112" y="17" text-anchor="middle">TEST</text></g></g><g transform="translate(19,21)"><g transform="translate(0,0)"><rect class="string-text" x="0" y="0" width="8" height="8"/><text x="4" y="4"> </text></g><g transform="translate(8,0)"><rect class="string-text" x="0" y="0" width="8" height="8"/><text x="4" y="4"> </text></g></g><g><text x="27" y="17" text-anchor="middle">Drivers</text></g></g><g class="vtree-node" transform="translate(-5,58)"><path class="vtree-link" d="M24,25C24,137.5 24,137.5 24,250"/><g class="vtree-node" transform="translate(-162,79)"><path class="vtree-link" d="M186,171C186,288 583,288 583,405"/><path class="vtree-link" d="M186,171C186,288 304,288 304,405"/><path class="vtree-link" d="M186,171C186,294 -93,294 -93,417"/><g class="vtree-node" transform="translate(-332,371)"><g transform="translate(0,21)"><g transform="translate(0,0)"><rect class="string-text" x="0" y="0" width="239" height="25"/><text x="4" y="21">TEST</text></g><g transform="translate(239,0)"><rect class="string-text" x="0" y="0" width="239" height="25"/><text x="4" y="21">TEST</text></g><g transform="translate(0,25)"><rect class="string-text" x="0" y="0" width="239" height="25"/><text x="4" y="21">jXM8swGEZqNtEOIkk5yhyQ8pm722</text></g><g transform="translate(239,25)"><rect class="string-text" x="0" y="0" width="239" height="25"/><text x="4" y="21">jXM8swGEZqNtEOIkk5yhyQ8pm722</text></g></g><g><text x="239" y="17" text-anchor="middle">TotalPassengersAssigned</text></g></g><g class="vtree-node" transform="translate(156,371)"><g transform="translate(0,21)"><g transform="translate(0,0)"><rect class="string-text" x="0" y="0" width="148" height="25"/><text x="4" y="21">useredit,01068925677</text></g><g transform="translate(148,0)"><rect class="string-text" x="0" y="0" width="148" height="25"/><text x="4" y="21">useredit,01068925677</text></g></g><g><text x="148" y="17" text-anchor="middle">acceptedPassengers</text></g></g><g class="vtree-node" transform="translate(462,371)"><g transform="translate(0,21)"><g transform="translate(0,0)"><rect class="string-text" x="0" y="0" width="121" height="25"/><text x="4" y="21">test,01068925677</text></g><g transform="translate(121,0)"><rect class="string-text" x="0" y="0" width="121" height="25"/><text x="4" y="21">test,01068925677</text></g></g><g><text x="121" y="17" text-anchor="middle">rejectedPassengers</text></g></g><g transform="translate(0,21)"><g transform="translate(0,0)"><rect class="string-text" x="0" y="0" width="145" height="25"/><text x="4" y="21">Date</text></g><g transform="translate(145,0)"><rect class="string-text" x="0" y="0" width="227" height="25"/><text x="4" y="21">2023-12-21</text></g><g transform="translate(0,25)"><rect class="string-text" x="0" y="0" width="145" height="25"/><text x="4" y="21">DriverID</text></g><g transform="translate(145,25)"><rect class="string-text" x="0" y="0" width="227" height="25"/><text x="4" y="21">biuc8tCWPXQBIYJtDo8eICAkpeo2</text></g><g transform="translate(0,50)"><rect class="string-text" x="0" y="0" width="145" height="25"/><text x="4" y="21">DriverMobile</text></g><g transform="translate(145,50)"><rect class="string-text" x="0" y="0" width="227" height="25"/><text x="4" y="21">01068925677</text></g><g transform="translate(0,75)"><rect class="string-text" x="0" y="0" width="145" height="25"/><text x="4" y="21">DriverName</text></g><g transform="translate(145,75)"><rect class="string-text" x="0" y="0" width="227" height="25"/><text x="4" y="21">driver3</text></g><g transform="translate(0,100)"><rect class="string-text" x="0" y="0" width="145" height="25"/><text x="4" y="21">From</text></g><g transform="translate(145,100)"><rect class="string-text" x="0" y="0" width="227" height="25"/><text x="4" y="21">Gate 3</text></g><g transform="translate(0,125)"><rect class="string-text" x="0" y="0" width="145" height="25"/><text x="4" y="21">RoutID</text></g><g transform="translate(145,125)"><rect class="string-text" x="0" y="0" width="227" height="25"/><text x="4" y="21">-Nm5bE8FhozrAu9f6fwT</text></g><g transform="translate(0,150)"><rect class="string-text" x="0" y="0" width="145" height="25"/><text x="4" y="21">TESTFLAG</text></g><g transform="translate(145,150)"><rect class="string-text" x="0" y="0" width="227" height="25"/><text x="4" y="21">false</text></g><g transform="translate(0,175)"><rect class="string-text" x="0" y="0" width="145" height="25"/><text x="4" y="21">Time</text></g><g transform="translate(145,175)"><rect class="string-text" x="0" y="0" width="227" height="25"/><text x="4" y="21">17:30</text></g><g transform="translate(0,200)"><rect class="string-text" x="0" y="0" width="145" height="25"/><text x="4" y="21">To</text></g><g transform="translate(145,200)"><rect class="string-text" x="0" y="0" width="227" height="25"/><text x="4" y="21">fg</text></g><g transform="translate(0,225)"><rect class="string-text" x="0" y="0" width="145" height="25"/><text x="4" y="21">TripStatus</text></g><g transform="translate(145,225)"><rect class="string-text" x="0" y="0" width="227" height="25"/><text x="4" y="21">Availabe</text></g><g transform="translate(0,250)"><rect class="string-text" x="0" y="0" width="145" height="25"/><text x="4" y="21">numberOfPassengers</text></g><g transform="translate(145,250)"><rect class="string-text" x="0" y="0" width="227" height="25"/><text x="4" y="21">1</text></g><g transform="translate(0,275)"><rect class="string-text" x="0" y="0" width="145" height="25"/><text x="4" y="21">price</text></g><g transform="translate(145,275)"><rect class="string-text" x="0" y="0" width="227" height="25"/><text x="4" y="21">20</text></g></g><g><text x="186" y="17" text-anchor="middle">-Nm5bE8FhozrAu9f6fwT</text></g></g><g transform="translate(16,21)"><g transform="translate(0,0)"><rect class="string-text" x="0" y="0" width="8" height="8"/><text x="4" y="4"> </text></g><g transform="translate(8,0)"><rect class="string-text" x="0" y="0" width="8" height="8"/><text x="4" y="4"> </text></g></g><g><text x="24" y="17" text-anchor="middle">routes</text></g></g><g class="vtree-node" transform="translate(802,58)"><path class="vtree-link" d="M22,25C22,100 138,100 138,175"/><path class="vtree-link" d="M22,25C22,100 -143,100 -143,175"/><g class="vtree-node" transform="translate(-255,79)"><g transform="translate(0,21)"><g transform="translate(0,0)"><rect class="string-text" x="0" y="0" width="81" height="25"/><text x="4" y="21">Type</text></g><g transform="translate(81,0)"><rect class="string-text" x="0" y="0" width="142" height="25"/><text x="4" y="21">USER</text></g><g transform="translate(0,25)"><rect class="string-text" x="0" y="0" width="81" height="25"/><text x="4" y="21">blockStatus</text></g><g transform="translate(81,25)"><rect class="string-text" x="0" y="0" width="142" height="25"/><text x="4" y="21">no</text></g><g transform="translate(0,50)"><rect class="string-text" x="0" y="0" width="81" height="25"/><text x="4" y="21">email</text></g><g transform="translate(81,50)"><rect class="string-text" x="0" y="0" width="142" height="25"/><text x="4" y="21">test@eng.asu.edu.eg</text></g><g transform="translate(0,75)"><rect class="string-text" x="0" y="0" width="81" height="25"/><text x="4" y="21">id</text></g><g transform="translate(81,75)"><rect class="string-text" x="0" y="0" width="142" height="25"/><text x="4" y="21">TEST</text></g><g transform="translate(0,100)"><rect class="string-text" x="0" y="0" width="81" height="25"/><text x="4" y="21">name</text></g><g transform="translate(81,100)"><rect class="string-text" x="0" y="0" width="142" height="25"/><text x="4" y="21">test</text></g><g transform="translate(0,125)"><rect class="string-text" x="0" y="0" width="81" height="25"/><text x="4" y="21">phone</text></g><g transform="translate(81,125)"><rect class="string-text" x="0" y="0" width="142" height="25"/><text x="4" y="21">01068925677</text></g></g><g><text x="112" y="17" text-anchor="middle">TEST</text></g></g><g class="vtree-node" transform="translate(-22,79)"><g transform="translate(0,21)"><g transform="translate(0,0)"><rect class="string-text" x="0" y="0" width="81" height="25"/><text x="4" y="21">Type</text></g><g transform="translate(81,0)"><rect class="string-text" x="0" y="0" width="239" height="25"/><text x="4" y="21">USER</text></g><g transform="translate(0,25)"><rect class="string-text" x="0" y="0" width="81" height="25"/><text x="4" y="21">blockStatus</text></g><g transform="translate(81,25)"><rect class="string-text" x="0" y="0" width="239" height="25"/><text x="4" y="21">no</text></g><g transform="translate(0,50)"><rect class="string-text" x="0" y="0" width="81" height="25"/><text x="4" y="21">email</text></g><g transform="translate(81,50)"><rect class="string-text" x="0" y="0" width="239" height="25"/><text x="4" y="21">user2@eng.asu.edu.eg</text></g><g transform="translate(0,75)"><rect class="string-text" x="0" y="0" width="81" height="25"/><text x="4" y="21">id</text></g><g transform="translate(81,75)"><rect class="string-text" x="0" y="0" width="239" height="25"/><text x="4" y="21">jXM8swGEZqNtEOIkk5yhyQ8pm722</text></g><g transform="translate(0,100)"><rect class="string-text" x="0" y="0" width="81" height="25"/><text x="4" y="21">name</text></g><g transform="translate(81,100)"><rect class="string-text" x="0" y="0" width="239" height="25"/><text x="4" y="21">useredit</text></g><g transform="translate(0,125)"><rect class="string-text" x="0" y="0" width="81" height="25"/><text x="4" y="21">phone</text></g><g transform="translate(81,125)"><rect class="string-text" x="0" y="0" width="239" height="25"/><text x="4" y="21">01068925677</text></g></g><g><text x="160" y="17" text-anchor="middle">jXM8swGEZqNtEOIkk5yhyQ8pm722</text></g></g><g transform="translate(14,21)"><g transform="translate(0,0)"><rect class="string-text" x="0" y="0" width="8" height="8"/><text x="4" y="4"> </text></g><g transform="translate(8,0)"><rect class="string-text" x="0" y="0" width="8" height="8"/><text x="4" y="4"> </text></g></g><g><text x="22" y="17" text-anchor="middle">users</text></g></g><g transform="translate(0,0)"><rect class="string-text" x="0" y="0" width="8" height="8"/><text x="4" y="4"> </text></g><g transform="translate(8,0)"><rect class="string-text" x="0" y="0" width="8" height="8"/><text x="4" y="4"> </text></g></g></g></g></svg>